<?xml version="1.0" encoding="UTF-8" standalone="no"?>
<svg
   version="1.1"
   width="100%"
   height="100%"
   viewBox="0 0 1000 600"
   id="svg12"
   sodipodi:docname="logo.svg"
   inkscape:version="1.2.2 (b0a8486541, 2022-12-01)"
   xmlns:inkscape="http://www.inkscape.org/namespaces/inkscape"
   xmlns:sodipodi="http://sodipodi.sourceforge.net/DTD/sodipodi-0.dtd"
   xmlns="http://www.w3.org/2000/svg"
   xmlns:svg="http://www.w3.org/2000/svg">
  <defs
     id="defs16" />
  <sodipodi:namedview
     id="namedview14"
     pagecolor="#ffffff"
     bordercolor="#000000"
     borderopacity="0.25"
     inkscape:showpageshadow="2"
     inkscape:pageopacity="0.0"
     inkscape:pagecheckerboard="0"
     inkscape:deskcolor="#d1d1d1"
     showgrid="false"
     inkscape:zoom="0.39333333"
     inkscape:cx="491.94915"
     inkscape:cy="301.27119"
     inkscape:window-width="1600"
     inkscape:window-height="830"
     inkscape:window-x="0"
     inkscape:window-y="0"
     inkscape:window-maximized="1"
     inkscape:current-layer="svg12" />
  <g
     id="g859">
    <path
       id="circle4"
       style="stroke-width:0.859794;fill:#ffde59;fill-opacity:1"
       d="M 268.29883 156.70117 A 143.299 143.299 0 0 0 125 300 A 143.299 143.299 0 0 0 268.29883 443.29883 A 143.299 143.299 0 0 0 411.59766 300 A 143.299 143.299 0 0 0 268.29883 156.70117 z M 242.17969 235.51562 L 255.66016 235.51562 L 255.66016 364.48438 L 242.17969 364.48438 L 242.17969 235.51562 z M 264.2793 235.51562 L 267.57227 235.51562 C 275.90152 235.51563 281.93888 237.19417 285.68555 240.55273 C 289.41729 243.9113 291.38672 249.43566 291.5957 257.12305 C 291.8196 262.06387 291.95521 266.54784 292 270.57812 C 292.05967 274.6084 292.05967 278.49091 292 282.22266 C 291.9552 285.9544 291.81959 289.89523 291.5957 294.04492 C 291.28223 303.98628 287.81968 310.37481 281.20703 313.21094 L 294.41797 364.48438 L 280.31055 364.48438 L 268.4668 315.56055 L 264.52539 315.56055 L 264.52539 303.4707 L 267.50391 303.4707 C 271.31028 303.4707 274.01219 302.78344 275.60938 301.41016 C 277.19163 300.03688 278.03418 297.7379 278.13867 294.51367 C 278.30287 289.84153 278.42341 285.52135 278.49805 281.55078 C 278.58761 277.56528 278.60266 273.57269 278.54297 269.57227 C 278.48324 265.57184 278.34762 261.25627 278.13867 256.62891 C 277.97447 253.3599 277.11686 251.05436 275.56445 249.71094 C 273.99712 248.36751 271.33386 247.69531 267.57227 247.69531 L 264.2793 247.69531 L 264.2793 235.51562 z " />
    <path
       d="m 483.49688,321.96396 v 0 q -0.1247,-4.48899 -0.19595,-10.17146 -0.0535,-5.66467 -0.0535,-11.79248 0,-6.12781 0.0535,-11.93499 0.0713,-5.80717 0.19595,-10.61678 v 0 q 0.44533,-8.39012 4.27521,-12.4694 3.81208,-4.06145 12.02406,-4.64929 v 0 8.53262 q -2.88577,0.57003 -4.1149,2.36918 -1.21131,1.79915 -1.28256,4.80963 v 0 q -0.19595,5.96748 -0.2494,11.73903 -0.0713,5.77155 -0.0713,11.54309 0,5.77154 0.0713,11.66779 0.0535,5.89623 0.2494,12.05967 v 0 q 0.0713,3.40236 1.35381,5.09464 1.28257,1.71008 4.04365,2.28012 v 0 8.53262 q -8.47919,-0.64129 -12.16656,-4.68493 -3.68738,-4.04364 -4.13271,-12.30906 z m 23.15743,16.99399 v 0 -8.60388 q 2.49387,-0.49878 3.65175,-2.24448 1.15787,-1.72791 1.28256,-5.13027 v 0 q 0.1247,-1.92385 0.16032,-5.13027 0.0356,-3.20641 -0.16032,-6.85815 v 0 h 10.58117 q 0.19595,2.11979 0.23158,5.52215 0.0178,3.40236 -0.10688,5.45091 v 0 q -0.37409,8.33667 -3.93677,12.38032 -3.56268,4.02583 -11.70341,4.61367 z m 15.51548,-37.1944 h -22.053 v -7.76665 h 11.59653 q 0.0713,-3.65174 0.0713,-7.33913 0,-3.68737 -0.0356,-6.53752 -0.0356,-2.85014 -0.16032,-4.07926 v 0 q -0.12469,-3.20642 -1.35382,-4.8987 -1.21131,-1.71008 -3.58049,-2.20886 v 0 -8.60387 q 8.06948,0.64128 11.70341,4.68492 3.61612,4.04365 3.93677,12.05968 v 0 q 0.0713,1.47852 0.12469,5.5756 0.0713,4.09708 0.0356,9.22734 -0.0356,5.13026 -0.28502,9.88645 z m 23.28213,62.00848 H 534.55011 V 261.16678 h 10.90181 z m 6.85816,-26.80918 v -6.66222 q 0.76598,0.32065 1.76353,0.44533 0.99755,0.1247 2.01291,0.1247 v 0 q 3.8477,0 5.77155,-1.76352 1.92385,-1.76354 2.06635,-5.80718 v 0 q 0.24939,-7.62414 0.37409,-13.8054 0.12469,-6.19906 0.10688,-11.64996 -0.0356,-5.45091 -0.16033,-10.83055 -0.1425,-5.39747 -0.32064,-11.29371 v 0 q -0.1425,-3.90114 -1.79915,-5.64685 -1.67446,-1.7279 -5.45091,-1.7279 v 0 q -2.44043,0 -4.36428,0.76597 v 0 -6.85816 q 1.53196,-1.01537 3.4558,-1.53195 1.92385,-0.51659 4.63148,-0.51659 v 0 q 6.98286,0 10.54555,3.8477 3.56268,3.84769 3.88332,12.70096 v 0 q 0.1247,3.90114 0.17813,9.97551 0.0713,6.05656 0.0713,12.79002 0,6.73348 -0.0713,12.86129 -0.0534,6.11 -0.17813,10.15364 v 0 q -0.32064,8.78202 -4.15053,12.66534 -3.81207,3.88333 -10.79492,3.88333 v 0 q -4.61368,0 -7.5707,-2.1198 z m 34.37988,-16.35271 v 0 q -0.19595,-3.90114 -0.2672,-9.17391 -0.0534,-5.25496 -0.0534,-11.0265 0,-5.77155 0.0534,-11.4184 0.0713,-5.62903 0.2672,-10.26052 v 0 q 0.44534,-9.22735 4.13271,-13.52038 3.68738,-4.29303 12.3447,-4.88087 v 0 8.53262 q -3.01047,0.57003 -4.32866,2.40481 -1.31819,1.83478 -1.44289,5.21933 v 0 q -0.12469,5.20151 -0.2672,10.81274 -0.12469,5.61122 -0.16032,11.54309 -0.0178,5.93186 0.10688,11.9528 0.12469,6.03875 0.37409,11.93498 v 0 q 0.1425,3.45581 1.44288,5.32621 1.31819,1.8526 4.27522,2.36919 v 0 8.53262 q -8.72857,-0.58784 -12.41595,-4.93431 -3.68737,-4.36429 -4.06146,-13.4135 z m 23.33557,18.34781 v 0 -8.53262 q 2.95702,-0.57004 4.2396,-2.40481 1.28256,-1.83478 1.33599,-5.16589 v 0 q 0.19596,-5.82499 0.32065,-11.57872 0.12469,-5.73592 0.16032,-11.47183 0.0356,-5.73592 -0.0891,-11.57872 -0.1247,-5.82499 -0.39191,-11.91717 v 0 q -0.0535,-3.34893 -1.33599,-5.13027 -1.28258,-1.79915 -4.2396,-2.31574 v 0 -8.53262 q 5.8428,0.39189 9.2986,2.44043 3.4558,2.04854 5.13027,6.00312 1.67445,3.93677 1.92384,9.9577 v 0 q 0.19595,4.23959 0.28502,9.53017 0.10688,5.29059 0.10688,10.97306 0,5.66467 -0.10688,11.1512 -0.0891,5.48653 -0.28502,10.2249 v 0 q -0.32064,6.03874 -1.95947,9.93988 -1.63884,3.91895 -5.09464,5.96749 -3.4558,2.04855 -9.2986,2.44044 z m 27.25452,-16.99399 v 0 q -0.0713,-2.88578 -0.0356,-5.61123 0.0356,-2.72545 0.16032,-5.36183 v 0 h 9.74393 q -0.12469,3.97238 -0.0891,6.92941 0.0356,2.95702 0.0356,5.13026 v 0 q 0.0534,3.40236 1.21131,5.09464 1.15787,1.71008 3.72301,2.20886 v 0 8.60388 q -7.89135,-0.58784 -11.1512,-4.61367 -3.27767,-4.04365 -3.59831,-12.38032 z m 21.60767,16.99399 v 0 -8.46137 q 2.95702,-0.51659 4.27521,-2.24449 1.30038,-1.74571 1.44289,-5.27277 v 0 q 0.0534,-1.85259 0.0534,-3.09954 0,-1.24693 0,-2.44043 0,-1.1935 -0.0534,-2.72545 v 0 q -0.14251,-4.36429 -1.28256,-6.48408 -1.15788,-2.10199 -4.63149,-3.20642 v 0 l -7.23225,-2.04854 q -5.13026,-1.47851 -8.21198,-3.723 -3.08171,-2.2445 -4.5246,-5.82499 -1.44289,-3.5983 -1.56759,-9.24516 v 0 q -0.0713,-2.17324 -0.0713,-3.61612 0,-1.44289 0.0713,-3.11734 v 0 q 0.1247,-8.39012 3.61613,-12.4694 3.49143,-4.06145 11.89935,-4.64929 v 0 8.53262 q -2.56512,0.51659 -3.61612,2.17323 -1.0688,1.67447 -1.1935,5.00558 v 0 q -0.0713,1.15786 -0.12469,2.99265 -0.0713,1.81697 0,4.13271 v 0 q 0.0535,4.41772 1.08662,7.08973 1.03317,2.6542 5.00557,3.81208 v 0 l 6.73347,1.79915 q 7.3035,1.85259 10.79492,6.02093 3.50924,4.16834 3.50924,12.43377 v 0 q 0,2.19104 -0.0356,3.91895 -0.0356,1.72789 -0.16032,3.97238 v 0 q -0.19595,8.21199 -3.723,12.18437 -3.52706,3.9724 -12.05968,4.56024 z m 15.19484,-50.92854 h -9.99333 q 0.1247,-1.97729 0.1247,-4.25741 0,-2.28012 0,-4.32865 0,-2.04855 -0.0713,-3.45581 v 0 q -0.0535,-3.27766 -1.08662,-4.95213 -1.01537,-1.65664 -3.52706,-2.10198 v 0 -8.60387 q 7.76665,0.58784 11.13339,4.59586 3.36673,4.00801 3.68737,12.34469 v 0 q 0,0.96192 0,2.97484 0,2.01291 -0.0356,4.16833 -0.0356,2.15543 -0.23157,3.61613 z m 24.76064,-41.93277 h -13.91228 v -10.58116 h 13.91228 z m -1.60321,92.02408 h -10.70586 v -76.95394 h 10.70586 z m 15.1414,-68.61726 h -6.16344 v -8.33668 h 6.16344 v -21.80361 h 10.83055 v 83.61615 q 0,4.63149 1.7279,6.2347 1.7279,1.6032 6.85817,1.6032 v 0 q 1.92385,0 3.31329,-0.10688 1.37163,-0.0891 3.17079,-0.28501 v 0 8.01603 q -1.53195,0.32064 -3.17079,0.48096 -1.63884,0.16033 -3.49143,0.16033 v 0 q -10.58116,0 -14.90982,-3.91895 -4.32866,-3.90115 -4.32866,-13.39569 v 0 z m 24.42218,0 h -8.58606 v -8.33668 h 8.58606 z m 9.4233,51.10668 v 0 q -0.17814,-3.90114 -0.24939,-9.17391 -0.0713,-5.25496 -0.0713,-11.0265 0,-5.77155 0.0713,-11.4184 0.0713,-5.62903 0.24939,-10.26052 v 0 q 0.46315,-9.22735 4.15052,-13.52038 3.68738,-4.29303 12.3447,-4.88087 v 0 8.53262 q -3.02828,0.57003 -4.32866,2.40481 -1.31819,1.83478 -1.44289,5.21933 v 0 q -0.1425,5.20151 -0.2672,10.81274 -0.12469,5.61122 -0.16032,11.54309 -0.0356,5.93186 0.10688,11.9528 0.12469,6.03875 0.37408,11.93498 v 0 q 0.12469,3.45581 1.44288,5.32621 1.3182,1.8526 4.27523,2.36919 v 0 8.53262 q -8.72857,-0.58784 -12.41595,-4.93431 -3.68737,-4.36429 -4.07927,-13.4135 z m 23.35338,18.34781 v 0 -8.53262 q 2.93922,-0.57004 4.22178,-2.40481 1.28256,-1.83478 1.35382,-5.16589 v 0 q 0.19595,-5.82499 0.32064,-11.57872 0.12469,-5.73592 0.16032,-11.47183 0.0356,-5.73592 -0.0891,-11.57872 -0.14252,-5.82499 -0.3919,-11.91717 v 0 q -0.0713,-3.34893 -1.35382,-5.13027 -1.28256,-1.79915 -4.22178,-2.31574 v 0 -8.53262 q 5.82498,0.39189 9.2986,2.44043 3.4558,2.04854 5.13027,6.00312 1.65664,3.93677 1.92384,9.9577 v 0 q 0.19595,4.23959 0.28502,9.53017 0.0891,5.29059 0.0891,10.97306 0,5.66467 -0.0891,11.1512 -0.0891,5.48653 -0.28502,10.2249 v 0 q -0.32064,6.03874 -1.95947,9.93988 -1.63884,3.91895 -5.09464,5.96749 -3.47362,2.04855 -9.2986,2.44044 z m 40.40082,-0.83723 h -11.02651 v -76.95394 h 11.02651 z m 6.7869,-67.65533 v 0 -8.21199 q 2.63639,-1.40726 6.80473,-1.40726 v 0 q 1.21131,0 2.44044,0.0891 1.21131,0.10688 2.36918,0.23157 v 0 8.33668 h -4.73837 q -4.1149,0 -6.87598,0.96193 z m 46.76017,67.65533 h -17.06521 l -12.50501,-76.95394 h 11.22244 l 4.93432,36.94501 3.723,31.79695 h 10.9731 z m -21.67889,26.36385 v 0 q -1.85259,0 -4.2574,-0.26721 -2.40481,-0.24938 -4.47117,-0.57002 v 0 -8.21199 q 1.74572,0.1247 4.1149,0.28502 2.36919,0.16032 4.41773,0.16032 v 0 q 4.80962,0 6.80472,-1.44289 1.97729,-1.44288 2.56513,-5.29058 v 0 l 0.69472,-4.61367 h 10.84841 l -0.7126,4.48898 q -0.83718,5.3262 -2.93919,8.72856 -2.11979,3.38456 -6.23469,5.05901 -4.09708,1.67447 -10.83056,1.67447 z m 23.97686,-41.0421 h -8.90671 l 2.88575,-25.33068 4.04369,-36.94501 h 11.15119 z"
       fill="#ffde59"
       id="path8"
       style="stroke-width:0.859794" />
  </g>
</svg>
