<?xml version="1.0" encoding="UTF-8" standalone="no"?>
<svg
   version="1.1"
   width="100%"
   height="100%"
   viewBox="0 0 1000 600"
   id="svg2088"
   sodipodi:docname="logo.svg"
   inkscape:version="1.2.2 (b0a8486541, 2022-12-01)"
   xmlns:inkscape="http://www.inkscape.org/namespaces/inkscape"
   xmlns:sodipodi="http://sodipodi.sourceforge.net/DTD/sodipodi-0.dtd"
   xmlns="http://www.w3.org/2000/svg"
   xmlns:svg="http://www.w3.org/2000/svg">
  <defs
     id="defs2092" />
  <sodipodi:namedview
     id="namedview2090"
     pagecolor="#ffffff"
     bordercolor="#000000"
     borderopacity="0.25"
     inkscape:showpageshadow="2"
     inkscape:pageopacity="0.0"
     inkscape:pagecheckerboard="0"
     inkscape:deskcolor="#d1d1d1"
     showgrid="false"
     inkscape:zoom="0.965"
     inkscape:cx="495.85492"
     inkscape:cy="300"
     inkscape:window-width="1600"
     inkscape:window-height="830"
     inkscape:window-x="0"
     inkscape:window-y="0"
     inkscape:window-maximized="1"
     inkscape:current-layer="svg2088" />
  <g
     id="g2580"
     style="fill:#f4a950;fill-opacity:1">
    <path
       id="circle2080"
       style="stroke-width:0.432786;fill:#f4a950;fill-opacity:1"
       d="M 197.13086 227.86914 A 72.131004 72.131004 0 0 0 125 300 A 72.131004 72.131004 0 0 0 197.13086 372.13086 A 72.131004 72.131004 0 0 0 269.26172 300 A 72.131004 72.131004 0 0 0 197.13086 227.86914 z M 184.28906 267.54102 L 196.66406 267.54102 C 200.83413 267.54102 203.86437 268.3856 205.75781 270.07617 C 207.65125 271.76674 208.65067 274.54845 208.75586 278.41797 C 208.86857 280.90498 208.93645 283.16272 208.95898 285.19141 C 208.98905 287.22009 208.98905 289.17238 208.95898 291.05078 C 208.93645 292.92919 208.86857 294.91316 208.75586 297.00195 C 208.65067 299.59416 208.17101 301.6822 207.31445 303.26758 C 206.46541 304.84544 205.135 306.0039 203.32422 306.74023 L 209.97461 332.45898 L 202.83984 332.45898 L 196.86523 307.83203 L 191.07227 307.83203 L 191.07227 332.45898 L 184.28906 332.45898 L 184.28906 267.54102 z M 191.07227 273.67188 L 191.07227 301.74609 L 196.62891 301.74609 C 198.52234 301.74609 199.87603 301.4022 200.6875 300.71094 C 201.49897 300.01968 201.92982 298.86123 201.98242 297.23828 C 202.06507 294.88651 202.1265 292.71152 202.16406 290.71289 C 202.20913 288.70675 202.22398 286.69725 202.20898 284.68359 C 202.19398 282.66994 202.11769 280.49915 201.98242 278.16992 C 201.89977 276.52443 201.46892 275.36177 200.6875 274.68555 C 199.89857 274.00932 198.5575 273.67187 196.66406 273.67188 L 191.07227 273.67188 z " />
    <path
       d="m 315.43281,319.67263 v 0 q -5.23647,0 -7.47811,-2.03541 -2.24164,-2.03541 -2.50167,-6.58146 v 0 q -0.0628,-2.29544 -0.0986,-5.1468 -0.0269,-2.86034 -0.0269,-5.90897 0,-3.04862 0.0269,-5.98966 0.0359,-2.94103 0.0986,-5.32613 v 0 q 0.26003,-4.71641 2.58237,-6.71596 2.32234,-1.99954 7.32568,-1.99954 v 0 q 5.0392,0 7.25394,2.01748 2.20578,2.01747 2.40304,6.47385 v 0 q 0.0269,0.74422 0.0448,2.7886 0.0179,2.05334 0,4.65364 -0.0179,2.59134 -0.1076,4.94955 v 0 h -14.17613 q 0,2.61823 0.0538,5.29923 0.0448,2.67204 0.10759,5.45167 v 0 q 0.0628,2.16094 1.10289,3.0038 1.03115,0.83389 3.29073,0.83389 v 0 q 2.25957,0 3.21003,-0.83389 0.95045,-0.84286 1.04908,-3.0038 v 0 q 0.0628,-0.96838 0.0628,-2.61823 0,-1.64088 -0.0986,-3.45213 v 0 h 5.39787 q 0.0628,1.06702 0.0897,2.7617 0.0359,1.69468 -0.0269,2.7617 v 0 q -0.22416,4.61778 -2.39407,6.61732 -2.16094,1.99955 -7.19118,1.99955 z m -4.61778,-22.91853 v 0 h 8.84103 q 0.0359,-1.77538 0.0538,-3.58663 0.009,-1.80227 -0.0179,-3.21003 -0.0359,-1.39878 -0.0986,-1.9816 v 0 q -0.0986,-2.13404 -1.11185,-2.98587 -1.02219,-0.86079 -3.12037,-0.86079 v 0 q -2.42097,0 -3.38936,0.95942 -0.96839,0.95046 -1.03115,2.88724 v 0 q -0.0269,2.16094 -0.0807,4.37568 -0.0448,2.20577 -0.0448,4.40258 z m 25.8237,35.34618 h -5.48754 v -51.64739 h 5.48754 v 3.61353 h 0.96839 q 1.09391,-2.06231 2.48373,-3.0845 1.38982,-1.01322 4.07082,-1.01322 v 0 q 3.51489,0 5.3082,1.93677 1.79331,1.93678 1.95471,6.39316 v 0 q 0.0628,1.96368 0.0897,5.02128 0.0359,3.04863 0.0359,6.43799 0,3.38936 -0.0359,6.47385 -0.0269,3.07553 -0.0897,5.11094 v 0 q -0.1614,4.42052 -2.08921,6.37523 -1.91884,1.95471 -5.43373,1.95471 v 0 q -2.16094,0 -3.63146,-0.95046 -1.47051,-0.95045 -2.66306,-3.14726 v 0 h -0.96839 z m 5.35303,-16.56124 v 0 q 1.93678,0 2.90517,-0.88769 0.96839,-0.88769 1.04012,-2.9231 v 0 q 0.12553,-3.83768 0.1883,-6.94908 0.0628,-3.12036 0.0538,-5.86413 -0.0179,-2.74377 -0.0807,-5.45167 -0.0717,-2.71687 -0.1614,-5.6848 v 0 q -0.0717,-1.96368 -0.90563,-2.8424 -0.84285,-0.86975 -2.74376,-0.86975 v 0 q -1.99954,0 -3.47006,0.92355 -1.47052,0.91459 -2.17887,2.7886 v 0 24.04832 q 0.77112,2.07127 2.04437,2.88723 1.28222,0.82492 3.30866,0.82492 z m 25.41123,4.13359 v 0 q -3.55075,0 -5.70273,-0.93252 -2.14301,-0.9415 -3.14726,-2.98587 -0.99529,-2.05334 -1.15669,-5.37993 v 0 q -0.0986,-1.96368 -0.1345,-4.61778 -0.0269,-2.64514 -0.0269,-5.55031 0,-2.90516 0.0269,-5.74756 0.0359,-2.83343 0.1345,-5.16474 v 0 q 0.1883,-3.38936 1.19256,-5.43373 0.99528,-2.05335 3.12932,-2.96794 2.13405,-0.92355 5.6848,-0.92355 v 0 q 3.61353,0 5.7386,0.95045 2.13404,0.95046 3.10243,2.98587 0.96839,2.03541 1.12979,5.3889 v 0 q 0.0986,2.13404 0.14346,4.79711 0.0538,2.66307 0.0538,5.5234 0,2.85137 -0.0538,5.61307 -0.0448,2.7617 -0.14346,5.14681 v 0 q -0.1614,3.32659 -1.14772,5.37993 -0.98632,2.04437 -3.1114,2.98587 -2.13404,0.93252 -5.7117,0.93252 z m 0,-4.19635 v 0 q 2.51064,0 3.49696,-0.95046 0.98632,-0.95045 1.04909,-3.02173 v 0 q 0.0986,-2.93207 0.1614,-5.82827 0.0628,-2.88723 0.0807,-5.77446 0.0179,-2.88723 -0.0448,-5.82826 -0.0628,-2.93207 -0.19726,-5.99863 v 0 q -0.0628,-2.09818 -1.07599,-3.0038 -1.02218,-0.90562 -3.47006,-0.90562 v 0 q -2.45684,0 -3.50592,0.95045 -1.04909,0.95046 -1.11186,3.04863 v 0 q -0.0628,2.61824 -0.13449,5.4427 -0.0628,2.82447 -0.0807,5.81034 -0.009,2.98586 0.0538,6.01656 0.0628,3.03966 0.18829,6.0076 v 0 q 0.0986,2.16094 1.12082,3.10243 1.01322,0.93252 3.47006,0.93252 z m 24.62218,4.19635 v 0 q -4.96748,0 -6.96702,-2.01748 -1.99954,-2.01747 -2.19681,-6.59939 v 0 q -0.0359,-1.42568 -0.0179,-2.74377 0.0179,-1.32704 0.0807,-2.64513 v 0 h 4.9047 q -0.0628,1.93678 -0.0448,3.39833 0.0179,1.47051 0.0179,2.53753 v 0 q 0.0269,2.16094 1.01322,3.02173 0.98632,0.85183 3.21003,0.85183 v 0 q 2.42097,0 3.47006,-0.85183 1.04908,-0.86079 1.12082,-3.05759 v 0 q 0.0269,-0.93252 0.0269,-1.56019 0,-0.62766 0,-1.22841 0,-0.60076 -0.0269,-1.37189 v 0 q -0.0717,-2.1968 -0.64559,-3.26382 -0.58283,-1.05806 -2.33131,-1.61398 v 0 l -3.64043,-1.03116 q -2.58236,-0.74422 -4.13358,-1.87401 -1.55122,-1.12979 -2.2775,-2.93207 -0.7263,-1.81124 -0.78906,-4.65364 v 0 q -0.0359,-1.09392 -0.0359,-1.82021 0,-0.72629 0.0359,-1.56915 v 0 q 0.0986,-4.64468 2.20577,-6.66215 2.11611,-2.01748 7.31671,-2.01748 v 0 q 4.90471,0 6.96702,1.97264 2.07128,1.96368 2.23268,6.61732 v 0 q 0,0.70836 0,2.44787 0,1.74848 -0.1345,2.87827 v 0 h -5.03024 q 0.0628,-1.04012 0.0628,-2.15198 0,-1.11185 0,-2.1161 0,-0.99529 -0.0359,-1.70365 v 0 q -0.0269,-2.09818 -0.89666,-2.9231 -0.87872,-0.82492 -3.1652,-0.82492 v 0 q -2.25957,0 -3.16519,0.82492 -0.90562,0.82492 -0.96839,2.95 v 0 q -0.0359,0.58283 -0.0628,1.50638 -0.0359,0.91459 0,2.08025 v 0 q 0.0269,2.2237 0.54696,3.56868 0.52007,1.33602 2.51961,1.91885 v 0 l 3.38936,0.90562 q 3.67629,0.93252 5.43374,3.0307 1.76641,2.09817 1.76641,6.25866 v 0 q 0,1.10288 -0.0179,1.97264 -0.0179,0.86976 -0.0807,1.99955 v 0 q -0.0986,4.55501 -2.24164,6.51868 -2.15197,1.97265 -7.41534,1.97265 z m 21.78874,-46.80545 h -7.00288 v -5.32613 h 7.00288 z m -0.80699,46.32125 h -5.3889 v -38.73554 h 5.3889 z m 17.40409,0.4842 v 0 q -5.362,0 -7.52294,-1.97265 -2.16094,-1.96367 -2.16094,-6.74285 v 0 l -0.0359,-26.30789 h -3.09345 v -4.19635 h 3.25486 v -10.97507 h 5.46063 v 10.97507 h 6.68009 v 4.19635 h -6.84148 l 0.0269,26.91762 q 0,2.3313 0.86078,3.13829 0.85183,0.80699 3.4342,0.80699 v 0 q 0.96839,0 1.67674,-0.0538 0.70835,-0.0448 1.614,-0.14347 v 0 4.03495 q -0.77114,0.12553 -1.59606,0.22416 -0.82493,0.0986 -1.75745,0.0986 z m 16.9468,0 v 0 q -3.55075,0 -5.70274,-0.93252 -2.14298,-0.9415 -3.14726,-2.98587 -0.99528,-2.05334 -1.15666,-5.37993 v 0 q -0.0986,-1.96368 -0.13451,-4.61778 -0.0268,-2.64514 -0.0268,-5.55031 0,-2.90516 0.0268,-5.74756 0.0359,-2.83343 0.13451,-5.16474 v 0 q 0.18826,-3.38936 1.19254,-5.43373 1.00423,-2.05335 3.12934,-2.96794 2.13403,-0.92355 5.68478,-0.92355 v 0 q 3.61354,0 5.74757,0.95045 2.12506,0.95046 3.09347,2.98587 0.9684,2.03541 1.12978,5.3889 v 0 q 0.0986,2.13404 0.14347,4.79711 0.0538,2.66307 0.0538,5.5234 0,2.85137 -0.0538,5.61307 -0.0448,2.7617 -0.14347,5.14681 v 0 q -0.16138,3.32659 -1.1477,5.37993 -0.97736,2.04437 -3.11143,2.98587 -2.13402,0.93252 -5.71169,0.93252 z m 0,-4.19635 v 0 q 2.51959,0 3.49695,-0.95046 0.98632,-0.95045 1.04912,-3.02173 v 0 q 0.0986,-2.93207 0.16138,-5.82827 0.0717,-2.88723 0.0807,-5.77446 0.0177,-2.88723 -0.0448,-5.82826 -0.0628,-2.93207 -0.19726,-5.99863 v 0 q -0.0628,-2.09818 -1.07599,-3.0038 -1.0222,-0.90562 -3.47008,-0.90562 v 0 q -2.45684,0 -3.50592,0.95045 -1.04911,0.95046 -1.11187,3.04863 v 0 q -0.0627,2.61824 -0.1255,5.4427 -0.0718,2.82447 -0.0807,5.81034 -0.0177,2.98586 0.0448,6.01656 0.0627,3.03966 0.19726,6.0076 v 0 q 0.0897,2.16094 1.11187,3.10243 1.0132,0.93252 3.47004,0.93252 z m 22.07568,3.71215 h -5.55031 v -38.73554 h 5.55031 v 3.90942 h 1.10286 q 0.57388,-2.25957 1.98164,-3.16519 1.40773,-0.90563 3.75698,-0.90563 v 0 q 0.61871,0 1.22842,0.0448 0.61871,0.0538 1.19254,0.0807 v 0 4.23221 h -2.38509 q -2.96796,0 -4.6357,0.95046 -1.65882,0.95045 -2.24165,3.30866 v 0 z m 15.75423,13.27051 v 0 q -0.93253,0 -2.29541,-0.1345 -1.35397,-0.12553 -2.38513,-0.28692 v 0 -4.13359 q 0.86977,0.0628 2.19682,0.14346 1.3181,0.0807 2.38509,0.0807 v 0 q 2.61826,0 3.56871,-0.85183 0.95044,-0.86079 1.33601,-3.04863 v 0 l 0.84285,-5.03921 h -4.32189 l -5.8462,-38.73554 h 5.64894 l 1.99955,18.59665 1.90989,16.00531 h 1.93676 l 1.90092,-16.00531 1.90089,-18.59665 h 5.62206 l -6.13314,43.41609 q -0.42145,2.8693 -1.45256,4.77917 -1.03116,1.90092 -3.12039,2.85137 -2.08023,0.95942 -5.69377,0.95942 z m 26.40652,-13.27051 h -9.23557 v -6.45592 h 9.23557 z m 11.48618,0 h -5.38892 v -51.64738 h 5.38892 v 23.20545 h 9.36108 v -23.20545 h 5.39788 v 51.64738 h -5.39788 v -23.56412 h -9.36108 z m 31.6071,0.4842 v 0 q -3.55075,0 -5.70273,-0.93252 -2.14299,-0.9415 -3.14727,-2.98587 -0.99527,-2.05334 -1.15666,-5.37993 v 0 q -0.0986,-1.96368 -0.13451,-4.61778 -0.0268,-2.64514 -0.0268,-5.55031 0,-2.90516 0.0268,-5.74756 0.0359,-2.83343 0.13451,-5.16474 v 0 q 0.18831,-3.38936 1.19254,-5.43373 1.00428,-2.05335 3.12935,-2.96794 2.13402,-0.92355 5.68477,-0.92355 v 0 q 3.61355,0 5.74757,0.95045 2.12511,0.95046 3.09347,2.98587 0.9684,2.03541 1.12979,5.3889 v 0 q 0.0986,2.13404 0.14347,4.79711 0.0538,2.66307 0.0538,5.5234 0,2.85137 -0.0538,5.61307 -0.0448,2.7617 -0.14347,5.14681 v 0 q -0.16139,3.32659 -1.14771,5.37993 -0.97736,2.04437 -3.11138,2.98587 -2.13407,0.93252 -5.71174,0.93252 z m 0,-4.19635 v 0 q 2.51964,0 3.497,-0.95046 0.98632,-0.95045 1.04907,-3.02173 v 0 q 0.0986,-2.93207 0.16139,-5.82827 0.0717,-2.88723 0.0807,-5.77446 0.0177,-2.88723 -0.0448,-5.82826 -0.0628,-2.93207 -0.19727,-5.99863 v 0 q -0.0628,-2.09818 -1.07599,-3.0038 -1.0222,-0.90562 -3.47008,-0.90562 v 0 q -2.45684,0 -3.50591,0.95045 -1.04907,0.95046 -1.11183,3.04863 v 0 q -0.0628,2.61824 -0.12555,5.4427 -0.0717,2.82447 -0.0807,5.81034 -0.0177,2.98586 0.0448,6.01656 0.0628,3.03966 0.19727,6.0076 v 0 q 0.0897,2.16094 1.11187,3.10243 1.01319,0.93252 3.47003,0.93252 z m 28.11019,3.71215 h -10.06946 l -4.35772,-38.73554 h 5.48751 l 1.58707,19.52917 1.21946,15.07279 h 2.07127 l 0.86977,-15.07279 1.83813,-19.36777 h 9.88115 l 1.64091,19.36777 0.96836,15.07279 h 2.07131 l 1.15666,-15.07279 1.71262,-19.52917 h 5.48751 l -4.45635,38.73554 h -9.97083 l -1.22842,-14.91139 -1.25529,-19.52917 h -2.19682 l -1.29118,19.52917 z m 36.38631,0 h -5.42476 v -46.76958 h -7.84576 v -4.8778 h 21.0804 v 4.8778 h -7.80988 z m 18.42625,0.4842 v 0 q -3.55075,0 -5.69373,-0.93252 -2.15199,-0.9415 -3.14727,-2.98587 -1.00428,-2.05334 -1.16566,-5.37993 v 0 q -0.0986,-1.96368 -0.12555,-4.61778 -0.0359,-2.64514 -0.0359,-5.55031 0,-2.90516 0.0359,-5.74756 0.0268,-2.83343 0.12555,-5.16474 v 0 q 0.19726,-3.38936 1.19254,-5.43373 1.00428,-2.05335 3.1383,-2.96794 2.12507,-0.92355 5.67582,-0.92355 v 0 q 3.61355,0 5.74757,0.95045 2.13407,0.95046 3.10243,2.98587 0.9684,2.03541 1.12978,5.3889 v 0 q 0.0897,2.13404 0.14347,4.79711 0.0448,2.66307 0.0448,5.5234 0,2.85137 -0.0448,5.61307 -0.0538,2.7617 -0.14347,5.14681 v 0 q -0.16138,3.32659 -1.1477,5.37993 -0.98632,2.04437 -3.12034,2.98587 -2.12511,0.93252 -5.71174,0.93252 z m 0,-4.19635 v 0 q 2.51964,0 3.50596,-0.95046 0.98631,-0.95045 1.04907,-3.02173 v 0 q 0.0986,-2.93207 0.16138,-5.82827 0.0628,-2.88723 0.0807,-5.77446 0.0177,-2.88723 -0.0538,-5.82826 -0.0628,-2.93207 -0.1883,-5.99863 v 0 q -0.0628,-2.09818 -1.08495,-3.0038 -1.01324,-0.90562 -3.47008,-0.90562 v 0 q -2.44784,0 -3.49695,0.95045 -1.04908,0.95046 -1.12079,3.04863 v 0 q -0.0628,2.61824 -0.12555,5.4427 -0.0628,2.82447 -0.0807,5.81034 -0.0177,2.98586 0.0448,6.01656 0.0718,3.03966 0.19726,6.0076 v 0 q 0.0986,2.16094 1.11187,3.10243 1.0222,0.93252 3.47004,0.93252 z m 22.24606,3.71215 h -5.42475 v -51.64738 h 10.65225 l 2.96791,16.36397 4.25914,30.4056 h 2.68102 l -0.74426,-28.20879 -0.2869,-18.56078 h 5.42476 v 51.64738 h -11.04682 l -3.1921,-18.39938 -3.58663,-28.44193 h -2.74373 l 0.64559,27.47354 z m 36.31456,0.4842 v 0 q -5.23645,0 -7.47811,-2.03541 -2.24162,-2.03541 -2.50168,-6.58146 v 0 q -0.0628,-2.29544 -0.0986,-5.1468 -0.0268,-2.86034 -0.0268,-5.90897 0,-3.04862 0.0268,-5.98966 0.0359,-2.94103 0.0986,-5.32613 v 0 q 0.26006,-4.71641 2.58239,-6.71596 2.32233,-1.99954 7.32569,-1.99954 v 0 q 5.03918,0 7.25392,2.01748 2.20578,2.01747 2.40305,6.47385 v 0 q 0.0268,0.74422 0.0448,2.7886 0.0177,2.05334 0,4.65364 -0.0177,2.59134 -0.10759,4.94955 v 0 h -14.17612 q 0,2.61823 0.0538,5.29923 0.0448,2.67204 0.10759,5.45167 v 0 q 0.0627,2.16094 1.10286,3.0038 1.03116,0.83389 3.29074,0.83389 v 0 q 2.25957,0 3.21001,-0.83389 0.95049,-0.84286 1.04912,-3.0038 v 0 q 0.0627,-0.96838 0.0627,-2.61823 0,-1.64088 -0.0986,-3.45213 v 0 h 5.39788 q 0.0628,1.06702 0.0897,2.7617 0.0359,1.69468 -0.0268,2.7617 v 0 q -0.22414,4.61778 -2.39408,6.61732 -2.16095,1.99955 -7.19118,1.99955 z M 691.5531,296.7541 v 0 h 8.84104 q 0.0359,-1.77538 0.0538,-3.58663 0.009,-1.80227 -0.0177,-3.21003 -0.0359,-1.39878 -0.0986,-1.9816 v 0 q -0.0986,-2.13404 -1.11187,-2.98587 -1.0222,-0.86079 -3.12034,-0.86079 v 0 q -2.42096,0 -3.38937,0.95942 -0.9684,0.95046 -1.03115,2.88724 v 0 q -0.0268,2.16094 -0.0807,4.37568 -0.0448,2.20577 -0.0448,4.40258 z m 33.14938,22.91853 v 0 q -2.61823,0 -4.01699,-1.01323 -1.40777,-1.02218 -2.53756,-3.08449 v 0 h -0.80697 v 3.61352 h -5.48755 v -51.64738 h 5.48755 v 16.52537 h 1.12979 q 1.10287,-2.06231 2.51959,-3.0845 1.41673,-1.01322 4.03495,-1.01322 v 0 q 3.45212,0 5.20958,1.90091 1.76641,1.90987 1.89192,6.42902 v 0 q 0.0628,2.35821 0.0986,5.29027 0.0268,2.94104 0.0268,6.0883 0,3.14726 -0.0268,6.15106 -0.0359,2.99483 -0.0986,5.51443 v 0 q -0.16138,4.42052 -2.01747,6.37523 -1.85605,1.95471 -5.40684,1.95471 z m -1.71258,-4.13359 v 0 q 1.93676,0 2.76169,-0.88769 0.82489,-0.88769 0.88769,-2.9231 v 0 q 0.0986,-2.96793 0.16139,-5.81032 0.0628,-2.83344 0.0628,-5.71171 0,-2.86929 -0.0448,-5.90896 -0.0538,-3.03069 -0.14346,-6.35729 v 0 q -0.0717,-1.99954 -0.88769,-2.93207 -0.82489,-0.94148 -2.79753,-0.94148 v 0 q -1.99956,0 -3.47008,0.92355 -1.47052,0.91459 -2.17886,2.7886 v 0 24.04832 q 0.74422,1.97264 2.25958,2.8424 1.51531,0.86975 3.38936,0.86975 z m 21.85149,-42.67186 h -7.00291 v -5.32613 h 7.00291 z m -0.80701,46.32125 h -5.38888 v -38.73554 h 5.38888 z m 16.49849,0.4842 v 0 q -5.22749,0 -7.46915,-2.03541 -2.25061,-2.03541 -2.50167,-6.58146 v 0 q -0.0717,-2.29544 -0.0986,-5.1468 -0.0359,-2.86034 -0.0359,-5.90897 0,-3.04862 0.0359,-5.98966 0.0268,-2.94103 0.0986,-5.32613 v 0 q 0.25106,-4.71641 2.58239,-6.71596 2.32233,-1.99954 7.32568,-1.99954 v 0 q 5.03023,0 7.24497,2.01748 2.21474,2.01747 2.40304,6.47385 v 0 q 0.0359,0.74422 0.0538,2.7886 0.009,2.05334 0,4.65364 -0.0182,2.59134 -0.1166,4.94955 v 0 h -14.16716 q 0,2.61823 0.0448,5.29923 0.0448,2.67204 0.11659,5.45167 v 0 q 0.0627,2.16094 1.09391,3.0038 1.03116,0.83389 3.29073,0.83389 v 0 q 2.25958,0 3.21002,-0.83389 0.95944,-0.84286 1.04907,-3.0038 v 0 q 0.0718,-0.96838 0.0718,-2.61823 0,-1.64088 -0.0986,-3.45213 v 0 h 5.38888 q 0.0628,1.06702 0.0986,2.7617 0.0268,1.69468 -0.0359,2.7617 v 0 q -0.22418,4.61778 -2.38512,6.61732 -2.16095,1.99955 -7.20013,1.99955 z m -4.61778,-22.91853 v 0 h 8.85 q 0.0268,-1.77538 0.0448,-3.58663 0.0177,-1.80227 -0.0182,-3.21003 -0.0268,-1.39878 -0.0986,-1.9816 v 0 q -0.0896,-2.13404 -1.11182,-2.98587 -1.01324,-0.86079 -3.11139,-0.86079 v 0 q -2.421,0 -3.38936,0.95942 -0.9684,0.95046 -1.03116,2.88724 v 0 q -0.0359,2.16094 -0.0807,4.37568 -0.0538,2.20577 -0.0538,4.40258 z m 28.24465,22.43433 h -9.22656 v -6.45592 h 9.22656 z m 24.6939,-25.21397 h -5.32612 q 0.0359,-0.99528 0.0538,-2.0623 0.009,-1.06702 0,-2.11611 -0.0177,-1.04909 -0.0538,-1.88298 v 0 q -0.0268,-2.09818 -0.99528,-2.9231 -0.9684,-0.82492 -3.29969,-0.82492 v 0 q -2.34925,0 -3.31765,0.84285 -0.96836,0.8339 -1.04011,2.93207 v 0 q -0.0897,3.0038 -0.12551,5.92689 -0.0359,2.92311 -0.0359,5.82827 0,2.90517 0.0359,5.85516 0.0359,2.95 0.12551,6.05243 v 0 q 0.0718,2.16094 1.10291,3.02173 1.03115,0.85183 3.32657,0.85183 v 0 q 2.28649,0 3.23693,-0.86976 0.95944,-0.86976 0.98632,-3.03966 v 0 q 0.0628,-1.31809 0.0628,-2.72584 0,-1.39878 -0.0628,-3.30866 v 0 h 5.32612 q 0.0986,1.12979 0.1166,2.77963 0.0177,1.64089 -0.0538,2.74377 v 0 q -0.16143,4.58192 -2.38512,6.59939 -2.2237,2.01748 -7.22705,2.01748 v 0 q -5.20062,0 -7.44224,-2.01748 -2.24165,-2.01747 -2.47475,-6.59939 v 0 q -0.0628,-2.25957 -0.0897,-5.1199 -0.0359,-2.85137 -0.0359,-5.93587 0,-3.08449 0.0359,-6.00759 0.0268,-2.9231 0.0897,-5.34407 v 0 q 0.26002,-4.68054 2.53751,-6.68009 2.27749,-1.99954 7.30776,-1.99954 v 0 q 5.07507,0 7.33464,1.97264 2.25958,1.96368 2.34925,6.51869 v 0 q 0.0717,1.29119 0.0538,2.80654 -0.0182,1.51534 -0.1166,2.70789 z m 15.7184,25.69817 v 0 q -3.55075,0 -5.69377,-0.93252 -2.14299,-0.9415 -3.14727,-2.98587 -1.00423,-2.05334 -1.16566,-5.37993 v 0 q -0.0896,-1.96368 -0.12551,-4.61778 -0.0359,-2.64514 -0.0359,-5.55031 0,-2.90516 0.0359,-5.74756 0.0359,-2.83343 0.12551,-5.16474 v 0 q 0.19731,-3.38936 1.20154,-5.43373 0.99528,-2.05335 3.12935,-2.96794 2.12506,-0.92355 5.67581,-0.92355 v 0 q 3.62251,0 5.74757,0.95045 2.13403,0.95046 3.10243,2.98587 0.9684,2.03541 1.12979,5.3889 v 0 q 0.0986,2.13404 0.14347,4.79711 0.0448,2.66307 0.0448,5.5234 0,2.85137 -0.0448,5.61307 -0.0448,2.7617 -0.14347,5.14681 v 0 q -0.16139,3.32659 -1.14771,5.37993 -0.98636,2.04437 -3.11143,2.98587 -2.13402,0.93252 -5.72065,0.93252 z m 0,-4.19635 v 0 q 2.5196,0 3.50592,-0.95046 0.98631,-0.95045 1.04911,-3.02173 v 0 q 0.0986,-2.93207 0.16139,-5.82827 0.0628,-2.88723 0.0807,-5.77446 0.0177,-2.88723 -0.0448,-5.82826 -0.0718,-2.93207 -0.19727,-5.99863 v 0 q -0.0628,-2.09818 -1.08495,-3.0038 -1.01324,-0.90562 -3.47008,-0.90562 v 0 q -2.44788,0 -3.49695,0.95045 -1.04907,0.95046 -1.11187,3.04863 v 0 q -0.0717,2.61824 -0.13447,5.4427 -0.0628,2.82447 -0.0807,5.81034 -0.0177,2.98586 0.0538,6.01656 0.0628,3.03966 0.18831,6.0076 v 0 q 0.0986,2.16094 1.11182,3.10243 1.0222,0.93252 3.47008,0.93252 z m 21.95013,3.71215 h -5.4158 v -38.73554 h 5.4158 v 3.61353 h 1.06703 q 1.06704,-1.99955 2.40305,-3.04863 1.34497,-1.04909 3.92736,-1.04909 v 0 q 2.54647,0 4.14254,1.03115 1.60503,1.03116 2.27749,3.36246 v 0 h 1.00428 q 1.06699,-2.00851 2.60927,-3.20106 1.55119,-1.19255 4.13358,-1.19255 v 0 q 3.4252,0 5.14678,1.93677 1.73058,1.93678 1.76641,6.39316 v 0 30.8898 h -5.46063 V 287.8772 q 0,-2.0354 -0.88769,-2.9231 -0.88769,-0.88768 -2.62718,-0.88768 v 0 q -1.93681,0 -3.20106,1.02218 -1.25534,1.01323 -1.96368,2.75274 v 0 31.34709 h -5.46063 V 287.8772 q 0,-1.99954 -0.85186,-2.90516 -0.85181,-0.90562 -2.62718,-0.90562 v 0 q -1.93676,0 -3.34453,0.96839 -1.40776,0.96838 -2.05335,2.74376 v 0 z"
       fill="#ffde59ff"
       id="path2084"
       style="stroke-width:0.432786;fill:#f4a950;fill-opacity:1" />
  </g>
</svg>
