<?xml version="1.0" encoding="UTF-8" standalone="no"?>
<!-- Uploaded to: SVG Repo, www.svgrepo.com, Generator: SVG Repo Mixer Tools -->

<svg
   width="32"
   height="32"
   viewBox="0 0 1.92 1.92"
   version="1.1"
   id="svg856"
   sodipodi:docname="archive.svg"
   inkscape:version="1.2.2 (b0a8486541, 2022-12-01)"
   xmlns:inkscape="http://www.inkscape.org/namespaces/inkscape"
   xmlns:sodipodi="http://sodipodi.sourceforge.net/DTD/sodipodi-0.dtd"
   xmlns="http://www.w3.org/2000/svg"
   xmlns:svg="http://www.w3.org/2000/svg"
   xmlns:rdf="http://www.w3.org/1999/02/22-rdf-syntax-ns#"
   xmlns:cc="http://creativecommons.org/ns#"
   xmlns:dc="http://purl.org/dc/elements/1.1/">
  <defs
     id="defs860" />
  <sodipodi:namedview
     id="namedview858"
     pagecolor="#505050"
     bordercolor="#ffffff"
     borderopacity="1"
     inkscape:showpageshadow="0"
     inkscape:pageopacity="0"
     inkscape:pagecheckerboard="1"
     inkscape:deskcolor="#505050"
     showgrid="false"
     inkscape:zoom="18.40625"
     inkscape:cx="15.972835"
     inkscape:cy="20.34635"
     inkscape:window-width="1536"
     inkscape:window-height="795"
     inkscape:window-x="0"
     inkscape:window-y="0"
     inkscape:window-maximized="1"
     inkscape:current-layer="svg856" />
  <title
     id="title845">archive-solid</title>
  <g
     id="invisible_box"
     data-name="invisible box"
     transform="translate(0.73780756,-0.28240334)">
    <rect
       width="48"
       height="48"
       fill="none"
       id="rect847"
       x="0"
       y="0" />
  </g>
  <g
     id="icons_Q2"
     data-name="icons Q2"
     transform="matrix(0.04682862,0,0,0.04682761,-0.16388688,-0.16385507)"
     style="fill:#808000;fill-opacity:1;stroke:none;stroke-width:1.00056;stroke-dasharray:none">
    <path
       d="m 26,18 v 11.2 l 2.6,-2.6 a 2,2 0 0 1 3.1,0.2 2.2,2.2 0 0 1 -0.4,2.7 l -5.9,5.9 a 1.9,1.9 0 0 1 -2.8,0 l -5.9,-5.9 a 2.2,2.2 0 0 1 -0.4,-2.7 2,2 0 0 1 3.1,-0.2 L 22,29.2 V 18 H 4 v 22 a 4,4 0 0 0 4,4 h 32 a 4,4 0 0 0 4,-4 V 18 Z"
       id="path850"
       style="fill:#808000;fill-opacity:1;stroke:none;stroke-width:1.00056;stroke-dasharray:none" />
    <path
       d="M 43.9,14 H 4.1 a 3.6,3.6 0 0 1 0.7,-1.7 l 5,-6.7 A 3.9,3.9 0 0 1 13,4 h 22 a 3.9,3.9 0 0 1 3.2,1.6 l 5,6.7 a 3.6,3.6 0 0 1 0.7,1.7 z"
       id="path852"
       style="fill:#808000;fill-opacity:1;stroke:none;stroke-width:1.00056;stroke-dasharray:none" />
  </g>
  <metadata
     id="metadata1347">
    <rdf:RDF>
      <cc:Work
         rdf:about="">
        <dc:title>archive-solid</dc:title>
      </cc:Work>
    </rdf:RDF>
  </metadata>
</svg>
